<?xml version="1.0" encoding="utf-8"?>
<!-- Generator: Adobe Illustrator 17.0.0, SVG Export Plug-In . SVG Version: 6.00 Build 0)  -->
<!DOCTYPE svg PUBLIC "-//W3C//DTD SVG 1.1//EN" "http://www.w3.org/Graphics/SVG/1.1/DTD/svg11.dtd">
<svg version="1.1" id="Ebene_1" xmlns="http://www.w3.org/2000/svg" xmlns:xlink="http://www.w3.org/1999/xlink" x="0px" y="0px"
	 width="2000px" height="2000px" viewBox="0 0 2000 2000" enable-background="new 0 0 2000 2000" xml:space="preserve">
<line fill="none" stroke="#000000" stroke-miterlimit="10" x1="1189.468" y1="1805.581" x2="1189.468" y2="1805.581"/>
<path fill="none" stroke="#000000" stroke-miterlimit="10" d="M1151.069,1075.089"/>
<path fill="none" stroke="#000000" stroke-miterlimit="10" d="M1189.468,1022.381"/>
<path fill="none" stroke="#000000" stroke-miterlimit="10" d="M1151.069,1075.089"/>
<path fill="none" stroke="#000000" stroke-miterlimit="10" d="M1189.468,1110.316"/>
<path fill="none" stroke="#000000" stroke-miterlimit="10" d="M1188.746,1492.381"/>
<path fill="none" stroke="#000000" stroke-miterlimit="10" d="M848.065,1492.381"/>
<path fill="none" stroke="#000000" stroke-miterlimit="10" d="M241.767,1492.381"/>
<path fill="none" stroke="#000000" stroke-miterlimit="10" d="M1188.746,1492.381"/>
<g id="XMLID_3_" display="none">
	<g display="inline">
		<circle cx="385.103" cy="1704.811" r="264.674"/>
	</g>
	<g display="inline">
		<circle fill="none" stroke="#000000" stroke-miterlimit="10" cx="385.103" cy="1704.811" r="264.674"/>
	</g>
</g>
<path fill="none" stroke="#000000" stroke-miterlimit="10" d="M430.152,1440.07"/>
<g id="XMLID_1_">
	<g>
		<path d="M243.211,417.037L243.211,417.037c0-0.132,0-0.265,0-0.397V417.037z M567.147,539.536
			C567.147,539.536,567.147,539.404,567.147,539.536l52.834,48.338l2.165,1.986l528.923,485.229l-150.708,207.123l-0.577,0.927
			l-151.863,208.58l-225.774-207.255l-1.444-1.324h0.722L243.211,936.168l-0.722-0.662V241.962v-0.397l191.272,175.472h-0.144
			l61.785,56.548l0.144,0.132L567.147,539.536z"/>
	</g>
	<g>
		<line fill="none" stroke="#000000" stroke-miterlimit="10" x1="567.147" y1="539.404" x2="433.761" y2="417.037"/>
		<path fill="none" stroke="#000000" stroke-miterlimit="10" d="M242.489,241.962v693.544l0.722,0.662l378.214,346.971h-0.722
			l1.444,1.324l225.774,207.255l151.863-208.58l0.577-0.927l150.708-207.123L622.147,589.86l-2.165-1.986l-52.834-48.47
			c0,0,0,0-0.144,0.132l-71.601-65.818l-0.144-0.132l-61.785-56.548h0.144L242.489,241.565"/>
		<line fill="none" stroke="#000000" stroke-miterlimit="10" x1="619.981" y1="587.873" x2="621.425" y2="587.873"/>
		<polyline fill="none" stroke="#000000" stroke-miterlimit="10" points="241.767,936.168 241.767,936.168 242.777,936.168 
			243.211,936.168 		"/>
		<polyline fill="none" stroke="#000000" stroke-miterlimit="10" points="999.639,1283.139 999.783,1283.139 1000.361,1283.139 		
			"/>
		<line fill="none" stroke="#000000" stroke-miterlimit="10" x1="622.147" y1="588.536" x2="622.147" y2="589.86"/>
		<line fill="none" stroke="#000000" stroke-miterlimit="10" x1="621.714" y1="1283.536" x2="621.425" y2="1283.139"/>
		<polyline fill="none" stroke="#000000" stroke-miterlimit="10" points="620.703,1283.139 266.885,958.152 242.777,936.168 
			242.489,935.903 		"/>
		<line fill="none" stroke="#000000" stroke-miterlimit="10" x1="242.489" y1="241.565" x2="242.489" y2="241.962"/>
		<path fill="none" stroke="#000000" stroke-miterlimit="10" d="M243.211,416.375c0,0.132,0,0.265,0,0.397"/>
		<path fill="none" stroke="#000000" stroke-miterlimit="10" d="M243.211,416.772c0,0.132,0,0.265,0,0.397l0,0V416.772z"/>
		<line fill="none" stroke="#000000" stroke-miterlimit="10" x1="495.402" y1="473.585" x2="433.761" y2="417.037"/>
	</g>
</g>
<path fill="none" stroke="#000000" stroke-miterlimit="10" d="M430.152,1440.07"/>
<g id="XMLID_2_">
	<g>
		<path d="M1189.468,1804.919v-782.538l62.795-86.213l57.165-78.532l69.147-95.086l127.178-174.677l28.005-38.538l26.995-37.081
			l51.535-70.851l17.756-24.235h-0.144l71.168-97.867l57.021-78.267v870.075l0.144,5.959h-0.144v687.982h-2.165h-566.455V1804.919z
			 M1569.126,1631.434L1569.126,1631.434h-0.722C1568.693,1631.434,1568.837,1631.434,1569.126,1631.434z"/>
	</g>
	<g>
		<polyline fill="none" stroke="#000000" stroke-miterlimit="10" points="1560.753,512.255 1533.759,549.336 1505.753,587.873 
			1378.575,762.551 1309.428,857.636 1252.263,936.168 1189.468,1022.381 1189.468,1804.919 1756.068,1804.919 		"/>
		<polyline fill="none" stroke="#000000" stroke-miterlimit="10" points="1630.044,417.037 1630.044,417.037 1612.289,441.272 		"/>
		<polyline fill="none" stroke="#000000" stroke-miterlimit="10" points="1758.233,1116.937 1758.233,1110.978 1758.233,240.903 
			1701.212,319.17 		"/>
		<line fill="none" stroke="#000000" stroke-miterlimit="10" x1="1378.575" y1="1805.581" x2="1378.575" y2="1806.906"/>
		<path fill="none" stroke="#000000" stroke-miterlimit="10" d="M1569.126,1631.434c-0.289,0-0.433,0-0.722,0H1569.126
			L1569.126,1631.434z"/>
		<line fill="none" stroke="#000000" stroke-miterlimit="10" x1="1756.068" y1="1804.919" x2="1189.468" y2="1805.449"/>
		<polyline fill="none" stroke="#000000" stroke-miterlimit="10" points="1701.212,319.17 1630.044,417.037 1612.289,441.272 
			1560.753,512.255 		"/>
		<polyline fill="none" stroke="#000000" stroke-miterlimit="10" points="1758.233,1116.937 1758.233,1804.919 1758.233,1805.581 		
			"/>
	</g>
</g>
<g display="none">
	<rect display="inline" fill="none" stroke="#000000" stroke-miterlimit="10" width="2000" height="2000"/>
	<line display="inline" fill="none" stroke="#000000" stroke-miterlimit="10" x1="0" y1="1666.667" x2="2000" y2="1666.667"/>
	<line display="inline" fill="none" stroke="#000000" stroke-miterlimit="10" x1="0" y1="1333.333" x2="2000" y2="1333.333"/>
	<line display="inline" fill="none" stroke="#000000" stroke-miterlimit="10" x1="0" y1="1000" x2="2000" y2="1000"/>
	<line display="inline" fill="none" stroke="#000000" stroke-miterlimit="10" x1="0" y1="666.667" x2="2000" y2="666.667"/>
	<line display="inline" fill="none" stroke="#000000" stroke-miterlimit="10" x1="0" y1="333.333" x2="2000" y2="333.333"/>
	<line display="inline" fill="none" stroke="#000000" stroke-miterlimit="10" x1="1666.667" y1="0" x2="1666.667" y2="2000"/>
	<line display="inline" fill="none" stroke="#000000" stroke-miterlimit="10" x1="1333.333" y1="0" x2="1333.333" y2="2000"/>
	<line display="inline" fill="none" stroke="#000000" stroke-miterlimit="10" x1="1000" y1="0" x2="1000" y2="2000"/>
	<line display="inline" fill="none" stroke="#000000" stroke-miterlimit="10" x1="666.667" y1="0" x2="666.667" y2="2000"/>
	<line display="inline" fill="none" stroke="#000000" stroke-miterlimit="10" x1="333.333" y1="0" x2="333.333" y2="2000"/>
</g>
</svg>
