<?xml version="1.0" encoding="utf-8"?>
<!-- Generator: Adobe Illustrator 17.0.0, SVG Export Plug-In . SVG Version: 6.00 Build 0)  -->
<!DOCTYPE svg PUBLIC "-//W3C//DTD SVG 1.1//EN" "http://www.w3.org/Graphics/SVG/1.1/DTD/svg11.dtd">
<svg version="1.1" id="Ebene_1" xmlns="http://www.w3.org/2000/svg" xmlns:xlink="http://www.w3.org/1999/xlink" x="0px" y="0px"
	 width="20px" height="20px" viewBox="0 0 20 20" enable-background="new 0 0 20 20" xml:space="preserve">
<path display="none" fill="#12141D" d="M1.011,5.248C1.004,5.166,1.017,5,1.017,5c0.047-1.553,0.22-2.48,0.861-3.121
	C2.757,1,4.172,1,7,1h6c2.828,0,4.243,0,5.121,0.879C18.763,2.52,18.936,3.447,18.983,5c0,0,0.014,0.166,0.006,0.248
	C19,5.763,19,6.344,19,7v3c0,2.828,0,4.243-0.879,5.121C17.243,16,15.828,16,13,16H7c-2.828,0-4.243,0-5.121-0.879
	C1,14.243,1,12.828,1,10V7C1,6.344,1,5.763,1.011,5.248z M13,3H7C5.529,3,4.627,3.004,3.975,3.092
	c-0.574,0.077-0.669,0.187-0.681,0.2L3.293,3.293L3.292,3.294c-0.013,0.011-0.123,0.107-0.2,0.681
	C3.049,4.294,3.026,4.673,3.014,5.149c0.041,0.219,0.172,0.413,0.364,0.533L7.35,8.165c0.791,0.494,1.32,0.823,1.757,1.037
	C9.522,9.405,9.776,9.462,10,9.462s0.478-0.058,0.894-0.261c0.437-0.213,0.966-0.543,1.756-1.037l3.972-2.483
	c0.192-0.12,0.323-0.315,0.364-0.533c-0.012-0.476-0.035-0.855-0.078-1.174c-0.077-0.574-0.187-0.669-0.2-0.681l-0.001-0.001
	l-0.001-0.001c-0.011-0.013-0.107-0.123-0.681-0.2C15.373,3.004,14.471,3,13,3z M17,10V7.804l-3.333,2.083
	c-0.737,0.46-1.354,0.846-1.895,1.111c-0.573,0.28-1.136,0.464-1.772,0.464c-0.636,0-1.199-0.184-1.772-0.464
	c-0.541-0.265-1.158-0.65-1.895-1.111L3,7.804V10c0,1.471,0.004,2.373,0.092,3.025c0.077,0.574,0.187,0.67,0.2,0.681l0.001,0.001
	l0.001,0.001c0.011,0.013,0.107,0.123,0.681,0.2C4.627,13.996,5.529,14,7,14h6c1.471,0,2.373-0.004,3.025-0.092
	c0.574-0.077,0.67-0.187,0.681-0.2l0.001-0.001l0.001-0.001c0.013-0.011,0.123-0.107,0.2-0.681C16.996,12.373,17,11.471,17,10z"/>
<path display="none" fill="#12141D" d="M15,19c1.105,0,2-0.895,2-2H3c0,1.105,0.895,2,2,2H15z"/>
<g id="Mail_1_">
	<path fill="#FFFFFF" d="M16.645,3.632H3.355c-1.221,0-2.215,0.994-2.215,2.215v8.306c0,1.221,0.994,2.215,2.215,2.215h13.289
		c1.221,0,2.215-0.994,2.215-2.215V5.847C18.859,4.626,17.866,3.632,16.645,3.632z M17.752,14.153c0,0.611-0.497,1.107-1.107,1.107
		H3.355c-0.611,0-1.107-0.497-1.107-1.107V5.847c0-0.611,0.497-1.107,1.107-1.107h13.289c0.611,0,1.107,0.497,1.107,1.107V14.153z"
		/>
	<path fill="#FFFFFF" d="M15.74,6.526L10,11.223L4.26,6.526C4.023,6.333,3.674,6.367,3.481,6.604
		C3.287,6.841,3.322,7.189,3.558,7.383l6.091,4.983C9.751,12.45,9.876,12.492,10,12.492s0.249-0.042,0.351-0.125l6.091-4.983
		c0.237-0.194,0.271-0.542,0.078-0.779C16.326,6.367,15.977,6.333,15.74,6.526z"/>
</g>
</svg>
