<?xml version="1.0" standalone="no"?>
<!DOCTYPE svg PUBLIC "-//W3C//DTD SVG 20010904//EN"
 "http://www.w3.org/TR/2001/REC-SVG-20010904/DTD/svg10.dtd">
<svg version="1.0" xmlns="http://www.w3.org/2000/svg"
 width="1080.000000pt" height="1080.000000pt" viewBox="0 0 1080.000000 1080.000000"
 preserveAspectRatio="xMidYMid meet">
<metadata>
Created by potrace 1.14, written by Peter Selinger 2001-2017
</metadata>
<g transform="translate(0.000000,1080.000000) scale(0.100000,-0.100000)"
fill="#000000" stroke="none">
<path d="M0 5400 l0 -5400 5400 0 5400 0 0 5400 0 5400 -5400 0 -5400 0 0
-5400z m3420 2074 c96 -88 290 -265 430 -394 140 -128 467 -428 725 -665 259
-237 646 -592 860 -789 215 -196 394 -362 399 -369 5 -9 -131 -204 -428 -612
-240 -330 -440 -600 -446 -600 -8 0 -402 357 -625 566 -38 36 -239 220 -445
409 -206 189 -446 409 -532 489 l-158 145 0 1010 0 1009 22 -19 c13 -10 102
-91 198 -180z m4185 -4342 c-2 -3 -375 -5 -827 -6 l-823 -1 -3 1136 -2 1136
352 484 c193 266 404 557 470 647 65 89 172 236 238 327 66 91 173 238 238
328 65 89 172 235 238 325 l119 163 3 -2267 c1 -1247 0 -2269 -3 -2272z"/>
</g>
</svg>
