<?xml version="1.0" encoding="utf-8"?>
<!-- Generator: Adobe Illustrator 17.0.0, SVG Export Plug-In . SVG Version: 6.00 Build 0)  -->
<!DOCTYPE svg PUBLIC "-//W3C//DTD SVG 1.1//EN" "http://www.w3.org/Graphics/SVG/1.1/DTD/svg11.dtd">
<svg version="1.1" id="Ebene_1" xmlns:svgjs="http://svgjs.com/svgjs"
	 xmlns="http://www.w3.org/2000/svg" xmlns:xlink="http://www.w3.org/1999/xlink" x="0px" y="0px" width="512px" height="512px"
	 viewBox="0 0 512 512" enable-background="new 0 0 512 512" xml:space="preserve">
<g display="none">
	<path display="inline" fill="#FFFFFF" d="M405.664,74.848H106.336C47.608,74.848,0,122.457,0,181.184v149.633
		c0,58.728,47.608,106.336,106.336,106.336h299.328c58.728,0,106.336-47.608,106.336-106.336V181.184
		C512,122.457,464.392,74.848,405.664,74.848z M333.75,263.281l-140.006,66.774c-3.731,1.779-8.04-0.941-8.04-5.073V187.259
		c0-4.192,4.423-6.908,8.161-5.013l140.006,70.948C338.034,255.303,337.961,261.273,333.75,263.281z"/>
</g>
<path fill="#FFFFFF" d="M510.818,102.619c-18.75,8.324-38.902,13.93-60.052,16.457c21.596-12.932,38.18-33.424,45.973-57.844
	c-20.194,11.976-42.576,20.683-66.401,25.376c-19.048-20.322-46.249-33.02-76.318-33.02c-67.505,0-117.11,62.982-101.863,128.365
	c-86.872-4.353-163.912-45.973-215.491-109.232C9.273,119.713,22.459,181.188,69.006,212.318
	c-17.115-0.552-33.254-5.245-47.332-13.081c-1.147,48.437,33.572,93.752,83.856,103.838c-14.716,3.992-30.833,4.926-47.226,1.784
	c13.293,41.535,51.898,71.752,97.68,72.602c-43.956,34.464-99.337,49.859-154.802,43.319
	c46.271,29.665,101.248,46.971,160.28,46.971c194.129,0,303.807-163.954,297.181-311.005
	C479.072,141.989,496.803,123.578,510.818,102.619z"/>
</svg>
