<?xml version="1.0" encoding="utf-8"?>
<!-- Generator: Adobe Illustrator 17.0.0, SVG Export Plug-In . SVG Version: 6.00 Build 0)  -->
<!DOCTYPE svg PUBLIC "-//W3C//DTD SVG 1.1//EN" "http://www.w3.org/Graphics/SVG/1.1/DTD/svg11.dtd">
<svg version="1.1" id="Ebene_1" xmlns="http://www.w3.org/2000/svg" xmlns:xlink="http://www.w3.org/1999/xlink" x="0px" y="0px"
	 width="2000px" height="2000px" viewBox="0 0 2000 2000" enable-background="new 0 0 2000 2000" xml:space="preserve" >
<line fill="none" stroke="#000000" stroke-miterlimit="10" x1="1137.5" y1="1549" x2="1137.5" y2="1549"/>
<path fill="none" stroke="#000000" stroke-miterlimit="10" d="M1110.9,997.4"/>
<path fill="none" stroke="#000000" stroke-miterlimit="10" d="M1137.5,957.6"/>
<path fill="none" stroke="#000000" stroke-miterlimit="10" d="M1110.9,997.4"/>
<path fill="none" stroke="#000000" stroke-miterlimit="10" d="M1137.5,1024"/>
<path fill="none" stroke="#000000" stroke-miterlimit="10" d="M1137,1312.5"/>
<path fill="none" stroke="#000000" stroke-miterlimit="10" d="M901,1312.5"/>
<path fill="none" stroke="#000000" stroke-miterlimit="10" d="M481,1312.5"/>
<path fill="none" stroke="#000000" stroke-miterlimit="10" d="M1137,1312.5"/>
<g id="XMLID_3_">
	<g>
		<circle cx="614" cy="1417.9" r="170"/>
	</g>
	<g>
		<circle fill="none" stroke="#000000" stroke-miterlimit="10" cx="614" cy="1417.9" r="170"/>
	</g>
</g>
<path fill="none" stroke="#000000" stroke-miterlimit="10" d="M611.5,1273"/>
<g id="XMLID_1_">
	<g>
		<path d="M482,500.5L482,500.5c0-0.1,0-0.2,0-0.3V500.5z M706.4,593C706.4,593,706.4,592.9,706.4,593l36.6,36.5l1.5,1.5
			l366.4,366.4l-104.4,156.4l-0.4,0.7L900.9,1312l-156.4-156.5l-1-1h0.5l-262-262l-0.5-0.5V368.3V368L614,500.5h-0.1l42.8,42.7
			l0.1,0.1L706.4,593z"/>
	</g>
	<g>
		<line fill="none" stroke="#000000" stroke-miterlimit="10" x1="706.4" y1="592.9" x2="614" y2="500.5"/>
		<path fill="none" stroke="#000000" stroke-miterlimit="10" d="M481.5,368.3V892l0.5,0.5l262,262h-0.5l1,1L900.9,1312l105.2-157.5
			l0.4-0.7l104.4-156.4L744.5,631l-1.5-1.5l-36.6-36.6c0,0,0,0-0.1,0.1l-49.6-49.7l-0.1-0.1l-42.8-42.7h0.1L481.5,368"/>
		<line fill="none" stroke="#000000" stroke-miterlimit="10" x1="743" y1="629.5" x2="744" y2="629.5"/>
		<polyline fill="none" stroke="#000000" stroke-miterlimit="10" points="481,892.5 481,892.5 481.7,892.5 482,892.5 		"/>
		<polyline fill="none" stroke="#000000" stroke-miterlimit="10" points="1006,1154.5 1006.1,1154.5 1006.5,1154.5 		"/>
		<line fill="none" stroke="#000000" stroke-miterlimit="10" x1="744.5" y1="630" x2="744.5" y2="631"/>
		<line fill="none" stroke="#000000" stroke-miterlimit="10" x1="744.2" y1="1154.8" x2="744" y2="1154.5"/>
		<polyline fill="none" stroke="#000000" stroke-miterlimit="10" points="743.5,1154.5 498.4,909.1 481.7,892.5 481.5,892.3 		"/>
		<line fill="none" stroke="#000000" stroke-miterlimit="10" x1="481.5" y1="368" x2="481.5" y2="368.3"/>
		<path fill="none" stroke="#000000" stroke-miterlimit="10" d="M482,500c0,0.1,0,0.2,0,0.3"/>
		<path fill="none" stroke="#000000" stroke-miterlimit="10" d="M482,500.3c0,0.1,0,0.2,0,0.3h0V500.3z"/>
		<line fill="none" stroke="#000000" stroke-miterlimit="10" x1="656.7" y1="543.2" x2="614" y2="500.5"/>
	</g>
</g>
<path fill="none" stroke="#000000" stroke-miterlimit="10" d="M611.5,1273"/>
<g id="XMLID_2_">
	<g>
		<path d="M1137.5,1548.5V957.6l43.5-65.1l39.6-59.3l47.9-71.8l88.1-131.9l19.4-29.1l18.7-28l35.7-53.5l12.3-18.3h-0.1l49.3-73.9
			l39.5-59.1v657l0.1,4.5l-0.1,0v519.5h-1.5H1137.5z M1400.5,1417.5L1400.5,1417.5l-0.5,0
			C1400.2,1417.5,1400.3,1417.5,1400.5,1417.5z"/>
	</g>
	<g>
		<polyline fill="none" stroke="#000000" stroke-miterlimit="10" points="1394.7,572.4 1376,600.4 1356.6,629.5 1268.5,761.4 
			1220.6,833.2 1181,892.5 1137.5,957.6 1137.5,1548.5 1530,1548.5 		"/>
		<polyline fill="none" stroke="#000000" stroke-miterlimit="10" points="1442.7,500.5 1442.7,500.5 1430.4,518.8 		"/>
		<polyline fill="none" stroke="#000000" stroke-miterlimit="10" points="1531.5,1029 1531.5,1024.5 1531.5,367.5 1492,426.6 		"/>
		<line fill="none" stroke="#000000" stroke-miterlimit="10" x1="1268.5" y1="1549" x2="1268.5" y2="1550"/>
		<path fill="none" stroke="#000000" stroke-miterlimit="10" d="M1400.5,1417.5c-0.2,0-0.3,0-0.5,0L1400.5,1417.5L1400.5,1417.5z"/>
		<line fill="none" stroke="#000000" stroke-miterlimit="10" x1="1530" y1="1548.5" x2="1137.5" y2="1548.9"/>
		<polyline fill="none" stroke="#000000" stroke-miterlimit="10" points="1492,426.6 1442.7,500.5 1430.4,518.8 1394.7,572.4 		"/>
		<polyline fill="none" stroke="#000000" stroke-miterlimit="10" points="1531.5,1029 1531.5,1548.5 1531.5,1549 		"/>
	</g>
</g>
</svg>
